<?xml version="1.0" encoding="utf-8"?>
<!-- Generator: Adobe Illustrator 20.1.0, SVG Export Plug-In . SVG Version: 6.00 Build 0)  -->
<!DOCTYPE svg PUBLIC "-//W3C//DTD SVG 1.1//EN" "http://www.w3.org/Graphics/SVG/1.1/DTD/svg11.dtd">
<svg version="1.1" id="Layer_1" xmlns="http://www.w3.org/2000/svg" xmlns:xlink="http://www.w3.org/1999/xlink" x="0px" y="0px"
	 viewBox="0 0 2580 1800" style="enable-background:new 0 0 2580 1800;" xml:space="preserve">
<style type="text/css">
	.st0{fill:#BBF3FF;}
	.st1{fill:#FFEB8F;}
</style>
<g id="g3">
	<path id="path5" class="st0" d="M524.5,785.3c-113.6,17.9-237.1,43.2-328.1,118.8c129.8-71.1,258.4-99.8,407-85.1
		c92,9.1,174.1,63,267.5,51.3c92.8-11.7,138.4-85.7,216.7-127.6c109.7-58.7,226.5-42.8,345.3-66.7c-71.6-9.5-149.5-7.3-221.4-6.6
		c-96,1-178.1,62.5-263.1,99C808.8,828.4,666,714.4,524.5,785.3"/>
	<path id="path7" class="st0" d="M524.5,785.3C413.2,804.4,284,825.9,196.4,904.1c101-57.7,201.5-87.3,317.8-87.3
		c57.4,0,112.8,2,168.5,17.2c48.5,13.3,98.6,40.4,149.9,39c119.7-3.3,172.8-88.5,271.4-139.9c100.8-52.6,219-38.5,328.1-57.2
		c-71.4-8.6-149.2-7.3-220.7-6.6c-90.9,0.9-167.4,56.8-247.5,91.8C817.3,825.3,670.4,713.1,524.5,785.3"/>
	<path id="path9" class="st0" d="M642.2,1067.6c-99.2,22-203,17.9-299.6,52.1c105-53.5,235.9-49.1,348.9-29.3
		c127.6,22.3,288.2,37.5,389.1,128.7c13,11.7,22.3,26.3,34.3,38.5c22.9,23-1,25.5,35.8,24.9c42.6-0.7,91.1-51.1,133.7-63.8
		c151.9-45.1,285.8-56.5,445-56.5c-108.8-16-222.2-23.1-332.1-15.8c-75.9,5.1-205.3,62.6-278.8,35.6c-30-11.1-56.7-52.5-84.8-71.1
		c-35.7-23.7-75.8-40.5-117.7-49.5C826.4,1042,731.6,1047.5,642.2,1067.6"/>
	<path id="path11" class="st0" d="M642.2,1067.6c-99.6,22.5-201.6,20.9-299.6,52.1c108.7-54.6,240.3-47.4,357.4-28.6
		c126.6,20.3,261.7,42.6,368.3,118.4c40.3,28.6,45,87.8,92.8,68.9c58.5-23.1,104.3-53.1,166.6-68.6c141.2-35,255.1-47.7,401.9-47.7
		c-101.5-13.1-202.3-19.3-304.7-16.9c-100.3,2.3-196.5,31.9-296.7,37c-27,1.4-53.8-41.4-73.9-56.9c-40-30.8-84.9-50.4-133.6-62.8
		C830.1,1039.5,732.7,1048.5,642.2,1067.6"/>
	<path id="path13" class="st0" d="M1262.6,1077.1c50-32,104.6-74.1,167.4-58.7c62.3,15.3,87.8,24.9,154.9-0.7
		c117.1-44.7,303.6-95,402.7,22.7c-105.6-48.1-277.2-64.3-379.3-0.4c-75.4,47.2-96.1,42.6-180.5,18
		C1364.2,1039.5,1322.3,1052.4,1262.6,1077.1"/>
	<path id="path15" class="st0" d="M1262.6,1077.1c42.8-27.3,116.6-86.5,171.4-56.5c53.6,29.3,102.4,18.4,158.7-6.4
		c110.1-48.5,302.9-83.2,394.9,26.2c-109.3-46.4-283.7-64.4-387.7,5.1c-59.7,39.9-91.3,44.2-163,15.4
		C1371.9,1034.9,1324,1052.3,1262.6,1077.1"/>
	<path id="path17" class="st0" d="M365.2,1295.6c59-28.5,125.3-46.7,191.5-40c55,5.6,74.4,45.8,135.2,29
		c78.9-21.9,119.9-43.4,208.3-28.6c70.3,11.8,148.5,42.8,197.3,96.8c-69.4-40.3-148.2-58.9-227.6-65.3
		c-67.2-5.4-106.5,17.2-168.4,33C586.7,1349.9,482.6,1264.4,365.2,1295.6"/>
	<path id="path19" class="st0" d="M365.2,1295.6c54-26.7,138-56.7,198.8-38.5c58.9,17.7,79.1,43.2,144,20.9
		c131.1-45.1,285.8-32.4,389.5,74.8c-61.8-34.7-129.8-55.2-200.2-63.1c-77.7-8.7-124.7,12.1-196.6,30.8
		C586.5,1350.3,482.7,1264.4,365.2,1295.6"/>
	<path id="path21" class="st0" d="M1858.9,733.2c-75.4-44.2-142.7-60.3-226.5-36.7c35.3,2.5,73.5,2,107.8,11.4
		c31.6,8.6,52.6,38.7,81.5,46.6c40.5,11,45.8-12.4,77.5-30.1c49.2-27.4,74.4-42.9,135.2-54.3
		C1966.1,643.9,1902.4,681.4,1858.9,733.2"/>
	<path id="path23" class="st0" d="M1858.2,733.2c-72.2-42.8-144.6-64.2-225.8-36.7c44.7,3.7,95.2,1.1,136.7,21.3
		c25,12.2,44.7,43.4,75.3,41.1c24.3-1.8,50.3-30.7,70.2-44.7c39.1-27.6,71.4-34.9,119.8-44C1966.4,642.8,1902.2,682.6,1858.2,733.2"
		/>
	<path id="path25" class="st0" d="M1209.3,495.6c125.3-2.3,255.7,25.8,365,87.3c45.1,25.3,118-38.5,168.1-57.6
		c72.5-27.6,163-60.8,240.8-65.6c-67,37-144.5,52.5-214.6,83c-43.1,18.7-110.2,79.1-155.2,79.1c-46.4,0-90.5-55.1-137.4-70.4
		C1388.9,523,1300.6,502.3,1209.3,495.6"/>
	<path id="path27" class="st0" d="M1208.5,495.6c69.6,3.1,137.4,8.2,205.3,24.2c36.5,8.6,70.8,20.8,105.3,35.4
		c20.4,8.6,62.2,43.8,82.5,43.8c36.4,0.1,118-67,158.4-80c70-22.7,149.5-56.1,223.1-59.3c-71.9,36.9-151.9,55.5-225.8,87.9
		c-41.6,18.2-107.9,81.6-154.9,73.4c-43.1-7.5-73.9-53.6-119.3-67.2C1392.6,526.8,1303.3,501.5,1208.5,495.6"/>
	<path id="path29" class="st0" d="M1611.9,1311.8c-96.5,0-183.2-73.8-279.9,5.9c119.2-36,200.8-28.1,306.9,41.1
		c30-24.5-12.5-32.3,5.1-55c28.6-37,172.8-9.5,206.8-9.5c-35-20.9-77.2-33.4-118-27.1C1689,1273.8,1657.8,1312.3,1611.9,1311.8"/>
	<path id="path31" class="st0" d="M1611.9,1311.8c-95-2-187-70.6-279.9,5.9c121.8-34.9,197.7-25.8,306.9,41.1
		c29.4-23.7-20.5-46.5,15-62.3c50.7-22.6,142.3-2.2,196.2-2.2c-34.8-21-76.5-33.4-117.3-27.1
		C1689.2,1273.8,1657.6,1311.6,1611.9,1311.8"/>
	<path id="path33" class="st0" d="M1973.7,868.9c-84.4-34.8-126.8-37.9-217-20.5c67.1-2.5,128.2,26,194.4,29.3
		c46.6,2.3,86.8-16.4,132.3-19.8C2045.2,847.1,1999.1,827.8,1973.7,868.9"/>
	<path id="path35" class="st0" d="M1973.7,868.9c-79.3-33.6-132.9-41.3-217-20.5c64.6-2.8,123.6,23.7,187.1,28.6
		c50,3.9,90.8-14.7,139.6-19.1C2046.2,846.6,1998.3,827.7,1973.7,868.9"/>
	<path id="path37" class="st0" d="M1015.6,536c-69.7-6.8-110.6-52.3-177.6,9.5c32.9-17.1,73.9-54,114.7-38.9
		c18.5,6.8,25.6,35.4,38.7,40.3c20.3,7.6,57-17.5,85.5-27.9C1056.6,525.4,1036.9,533.5,1015.6,536"/>
	<path id="path39" class="st0" d="M1015.6,535.2c-69.9-4.8-109.7-50.4-177.6,9.5c34.9-17.5,77.6-55.6,119.8-35.9
		c15.9,7.4,25.5,22.8,33.3,37.8c8.1,15.6,67.6-20.4,85.1-27.5C1056,525.3,1036.8,534,1015.6,535.2"/>
	<path id="path41" class="st0" d="M1570.3,431.1c63.7-38.3,86.3-28.6,154.2-26.4c51,1.7,89-33.3,138.9-35.9
		c-51.2,10.8-80.6,56.8-136.7,49.9C1659.5,410.3,1640.4,396.9,1570.3,431.1"/>
	<path id="path43" class="st0" d="M1570.3,431.1c45.9-29.5,83.5-44.1,137.4-29.3c57,15.6,100.3-29.1,154.9-33
		c-46.5,11.6-84.4,62.4-135.9,49.5C1661.1,401.8,1636,399.3,1570.3,431.1"/>
	<path id="path45" class="st0" d="M1916.7,577c29.8-62.7,77.7-37.2,121.3-68.2c18.8-13.3,20.8-39.1,41.7-52.8
		c24.1-15.9,66.6-17.1,94.3-16.1c-57.6-3.7-88.6,13.6-108.2,67.5C2055.8,534.9,1952.7,559.8,1916.7,577"/>
	<path id="path47" class="st0" d="M1916.7,577c30.1-62.2,77.8-39,121.3-68.9c15.2-10.5,16.7-34.4,31.4-46.2
		c26.5-21.3,72.5-21.8,104.5-22c-61.1-3.5-72.1,14.5-105.2,59.4c-10.9,14.8,0.1,30.9-21.6,32.3c-16.2,1-31.6,2.8-47.1,7.3
		C1971.3,547.3,1943.5,564,1916.7,577"/>
	<path id="path49" class="st0" d="M1514.7,798.5c15.9,0,26.1,9.4,40.2,11.7c14.5,2.4,11.7,18.9,28.4,8.6c14.6-8.9,29.2-18,44.3-26.2
		c33.6-18.4,68.8-20.6,105.6-27.1c-31.3,10.5-86.4,19.7-105.6,50.6c-17.5,28.2-30.6,30.4-63.2,24.9
		c-91.1-15.3-110.6-15.5-195.1,17.6C1406.9,817.1,1459,797,1514.7,798.5"/>
	<path id="path51" class="st0" d="M1514.7,798.5c54.5,1.3,45.7,30.9,100.8,0.7c38.8-21.3,75.1-25.6,117.7-33.7
		c-34.1,11.7-69.4,20.8-98.7,42.5c-17.1,12.7-16.4,28.8-38.7,35.9c-33.2,10.6-79.6-20.4-113.3-22c-43.3-2-75,19.5-113.3,36.7
		C1405.7,816.3,1459.9,797.6,1514.7,798.5"/>
	<path id="path53" class="st0" d="M1285.3,906.3c-69.5-5.4-127.1-45.7-195.9,3.7c86.7-26.4,138.6-17.5,214.8,28.6
		c2.1-5.6,1.7-35.9,0.7-35.2c34.2-25.4,105.7-9.5,146.9-9.5C1383.6,849.1,1350.7,902.1,1285.3,906.3"/>
	<path id="path55" class="st0" d="M1285.3,905.5c-69.8-2.3-125.6-45.6-195.9,4.4c40.7-13.2,82.2-23.9,125-14.7
		c33.7,7.3,73.6,46.7,97.9,33c7.5-4.2-22.5-31.9,15.3-36.7c39.8-5,84.2,1.5,124.2,1.5C1380.7,850.8,1351,901.6,1285.3,905.5"/>
	<path id="path57" class="st0" d="M928.6,987.7c-50.7-8.2-85.9-26.6-137.4,2.2c20.8-7,43-12.5,65-12.5c25.3,0,68.1,36.1,85.5,33
		c16.5-2.9-5.7-23.3,1.5-25.7c32.2-10.9,66.6-5,102.3-5.9C999.8,950,972.8,979.9,928.6,987.7"/>
	<path id="path59" class="st0" d="M928.6,987.7c-47.9-9.8-90.7-26.1-137.4,2.2c25.8-8.4,54.3-15.4,81.5-10.6
		c25.1,4.4,55.1,28.2,72.7,26c3.9-0.5-8.7-21.7,8.8-27.1c25.6-8,64.9,1.4,91.3,0.7C1000,949.6,972.9,979.8,928.6,987.7"/>
	<path id="path61" class="st0" d="M1232.7,1001.6c-57-7.7-94.9-50.2-151.3,4.4c70.7-31.9,110.4-20.3,165.2,33.7
		c2.4-6.9,1.1-42.4,2.2-43.3c28.5-23.1,75.6-8.3,111.8-9.5C1309.1,936.6,1282.4,992.4,1232.7,1001.6"/>
	<path id="path63" class="st0" d="M1231.9,1001.6c-55.7-11.1-96.7-49-150.5,4.4c68.6-35,112.4-17.2,165.2,33
		c4.4-14.4-4.6-43.5,10.2-51c27-13.5,75.2-0.2,103.8-1.1C1308.6,934.8,1282.6,993.4,1231.9,1001.6"/>
	<path id="path65" class="st0" d="M2045.3,1417.3c-66.1-38-129.6-55.9-203.2-32.3c34.2,3.1,70.6,2.1,103.8,12.1
		c25.3,7.7,45.8,35.8,70.2,40c30.9,5.2,47.3-13.3,71.6-30.8c38.6-27.9,66.4-34.9,115.5-44
		C2141.1,1339.7,2085.9,1371.3,2045.3,1417.3"/>
	<path id="path67" class="st0" d="M2045.3,1417.3c-64.3-36.5-131.3-58.1-203.2-32.3c37.9,3.5,78.9,1.8,114.7,16.1
		c25,10,46.1,40.1,75.3,38.1c22.2-1.5,40.6-24.6,58.8-36.3c38.6-24.6,65.8-32.6,112.2-40.7
		C2142.1,1338.2,2085.3,1372.1,2045.3,1417.3"/>
	<path id="path69" class="st0" d="M1461.4,1209.8c116,1.8,229.6,22.4,332.1,78.5c36.8,20.1,97.3-33.5,137.8-49.1
		c67.3-26,153.5-57.8,225.8-60.1c-77.1,36.2-162,53-238.2,91.3c-32.8,16.5-65.2,54.8-103.8,48.8c-41.3-6.4-77.2-50.8-122-63.1
		C1617.1,1235.3,1540.7,1211.5,1461.4,1209.8"/>
	<path id="path71" class="st0" d="M1461.4,1209.8c62.1,3.1,123.4,7,184.2,21.3c28,6.5,55.1,15.3,81.9,25.7
		c22.5,8.7,65.3,43.4,87,43.3c15.5-0.1,55.6-33.7,72.3-41.4c27.3-12.6,55.1-23.2,83.7-32.6c58.2-19.1,125.6-45.3,186.7-46.9
		c-76.7,32.3-157.4,53.9-233.1,88.7c-37.8,17.4-69.5,58.6-113.6,50.6c-40-7.3-82.4-51.4-126.1-64.5
		C1612,1232.2,1537.2,1212.2,1461.4,1209.8"/>
	<path id="path73" class="st0" d="M1785.9,1154.1c53.3-34.3,84.6-27.9,142.5-23.1c43.1,3.6,78.3-28.8,120.6-31.9
		c-43.5,9.6-71.2,48.4-118.4,44.7C1870.4,1139.2,1849.3,1122.3,1785.9,1154.1"/>
	<path id="path75" class="st0" d="M1785.9,1154.1c50.6-34.4,76.3-26,130.8-24.2c48.7,1.6,85-27.1,132.3-30.8
		c-40.9,9.5-77.3,56-122.4,43.6C1870.2,1127.4,1843.2,1123.5,1785.9,1154.1"/>
	<path id="path77" class="st0" d="M2097.9,1281c24-53.8,69.6-34.4,108.2-60.1c19.5-13.1,16.7-38.6,42.8-47.3
		c25.9-8.7,51.9-12.5,79.3-12.1c-58.8-4.6-63,14.2-94.3,52.1c-21.9,26.5-14,18.2-46.8,30.8C2156.8,1255.9,2127.4,1266.5,2097.9,1281
		"/>
	<path id="path79" class="st0" d="M2097.2,1281c28.8-57.9,80-27.6,111.8-63.4c36.4-41.1,55.2-57.1,119.1-56.1
		c-55.9-6.8-62.6,16.8-94.3,52.1c-24,26.7-14.8,23.1-54.4,32.6C2150.8,1253,2123.5,1268.4,2097.2,1281"/>
	<path id="path81" class="st0" d="M1736.2,1473.8c14.1,0.7,26.8,4.6,38.7,12.1c24.5,15.3,39-4.9,62.8-16.9
		c30.6-15.3,61-18.3,94.3-23.8c-55.5,20.2-100.6,70.6-154.9,65.3c-75.2-7.4-99.7-20.1-171,16.9
		C1634.2,1489.6,1689.3,1472.9,1736.2,1473.8"/>
	<path id="path83" class="st0" d="M1736.2,1473.8c47.4,2,42.3,25,90.6,0.7c35.1-17.6,66.4-24.1,105.2-29.3
		c-55.2,20.2-106.1,76.9-162.1,63.6c-68.2-16.2-100.5-11.7-164.5,17.8C1639,1489.5,1686.9,1473.6,1736.2,1473.8"/>
	<path id="path85" class="st0" d="M1530.1,1567.7c-62.7-3-113.5-39.6-176.1,3.7c74.2-23.5,126.8-16.6,192.9,24.9
		c4.1-60.5,68.1-39.6,133-39.6C1619,1521.9,1588.3,1564.1,1530.1,1567.7"/>
	<path id="path87" class="st0" d="M1529.3,1567.7c-62.3-4.5-113.4-38.3-175.4,3.7c73.7-23.9,128.1-16.4,192.9,24.9
		c2.7-62,70.8-39.6,133-39.6C1617.9,1521.1,1588.2,1562.1,1529.3,1567.7"/>
	<path id="path89" class="st0" d="M1209.3,1638.8c-45.4-8-77.9-21.1-123.5,2.2c21.7-6.7,45.2-12.8,68-10.3
		c23.3,2.5,52.3,26.5,70.2,24.9c12.3-1.1-8.6-17.5-1.5-19.1c29.9-6.6,59.1-4,92.1-5.1C1272.5,1606.6,1249.1,1631.9,1209.3,1638.8"/>
	<path id="path91" class="st0" d="M1209.3,1638.8c-44-8.7-80.1-20.6-123.5,2.2c21.1-7,45.5-13,68-10.3c22,2.7,51.9,27.2,68.7,25.7
		c14.5-1.3-11.8-19.9,4.4-23.5c28.4-6.3,58.6-0.4,87.7-1.5C1273.2,1606,1249.1,1632.8,1209.3,1638.8"/>
	<path id="path93" class="st0" d="M1482.6,1651.3c-50-9.2-87.1-42.8-135.9,3.7c60.3-29.3,100.6-15.3,149.1,29.3
		c9.5-62.4,30.1-42.9,102.3-45.5C1550.4,1593.6,1527.7,1642.3,1482.6,1651.3"/>
	<path id="path95" class="st0" d="M1482.6,1651.3c-48.2-11.2-88.9-42.7-135.9,3.7c60.7-31.7,101.3-14.9,148.3,29.3
		c11.7-63.5,31.4-42.9,103-45.5C1550.4,1595.2,1528.1,1640,1482.6,1651.3"/>
</g>
<g>
	<polygon class="st1" points="1174.2,1059 1192.8,1080.3 1221,1077 1206.5,1101.3 1218.3,1127.1 1190.7,1120.8 1169.9,1140 
		1167.3,1111.8 1142.6,1098 1168.6,1086.8 	"/>
	<polygon class="st1" points="869.4,1139.2 888,1160.5 916.2,1157.2 901.7,1181.5 913.5,1207.3 885.9,1201 865.1,1220.2 862.5,1192 
		837.8,1178.2 863.8,1167 	"/>
	<polygon class="st1" points="1336.4,1358.2 1331.3,1415.7 1375.7,1452.6 1319.4,1465.4 1298.1,1519 1268.5,1469.5 1210.9,1465.8 
		1248.9,1422.3 1234.6,1366.4 1287.7,1389.1 	"/>
	<polygon class="st1" points="611,1604.2 605.8,1661.7 650.2,1698.5 594,1711.4 572.7,1765 543.1,1715.5 485.5,1711.8 523.4,1668.3 
		509.2,1612.4 562.2,1635.1 	"/>
	<polygon class="st1" points="693,1114 687.8,1171.5 732.2,1208.4 676,1221.2 654.7,1274.8 625.1,1225.3 567.5,1221.6 605.4,1178.1 
		591.2,1122.2 644.2,1144.9 	"/>
	<polygon class="st1" points="293.7,942.9 288.5,1000.4 333,1037.2 276.7,1050.1 255.4,1103.7 225.8,1054.2 168.2,1050.5 
		206.2,1007 191.9,951.1 244.9,973.8 	"/>
	<polygon class="st1" points="1512.9,358.3 1507.7,415.8 1552.2,452.6 1495.9,465.4 1474.6,519.1 1445,469.5 1387.4,465.8 
		1425.4,422.4 1411.1,366.5 1464.1,389.1 	"/>
	<polygon class="st1" points="643.1,541.9 637.9,599.3 682.3,636.2 626.1,649 604.7,702.7 575.1,653.1 517.6,649.4 555.5,606 
		541.2,550.1 594.3,572.7 	"/>
	<polygon class="st1" points="1108.2,772 1126.9,793.3 1155,790 1140.5,814.4 1152.4,840.1 1124.7,833.8 1103.9,853.1 1101.3,824.8 
		1076.6,811 1102.7,799.8 	"/>
	<polygon class="st1" points="1254.4,797 1273,818.3 1301.2,815 1286.7,839.3 1298.5,865 1270.9,858.8 1250.1,878 1247.5,849.8 
		1222.8,835.9 1248.8,824.8 	"/>
	<polygon class="st1" points="1682.2,862.9 1700.8,884.2 1729,880.9 1714.5,905.3 1726.3,931 1698.7,924.7 1677.9,944 1675.3,915.7 
		1650.6,901.9 1676.6,890.7 	"/>
	<polygon class="st1" points="1423.7,706.1 1442.4,727.4 1470.5,724.1 1456,748.4 1467.9,774.1 1440.2,767.9 1419.4,787.1 
		1416.8,758.9 1392.1,745 1418.2,733.8 	"/>
	<polygon class="st1" points="1584.1,706.1 1602.8,727.4 1630.9,724.1 1616.4,748.4 1628.3,774.1 1600.7,767.9 1579.8,787.1 
		1577.3,758.9 1552.5,745 1578.6,733.8 	"/>
	<polygon class="st1" points="1833.7,620.5 1852.3,641.8 1880.5,638.5 1866,662.8 1877.8,688.6 1850.2,682.3 1829.4,701.5 
		1826.8,673.3 1802.1,659.5 1828.1,648.3 	"/>
	<polygon class="st1" points="1671.5,1059 1690.1,1080.3 1718.3,1077 1703.8,1101.3 1715.6,1127.1 1688,1120.8 1667.2,1140 
		1664.6,1111.8 1639.9,1098 1665.9,1086.8 	"/>
	<polygon class="st1" points="1833.7,1153.5 1852.3,1174.8 1880.5,1171.4 1866,1195.8 1877.8,1221.5 1850.2,1215.3 1829.4,1234.5 
		1826.8,1206.3 1802.1,1192.4 1828.1,1181.2 	"/>
	<polygon class="st1" points="2076.1,925.3 2094.8,946.6 2122.9,943.3 2108.4,967.6 2120.2,993.4 2092.6,987.1 2071.8,1006.3 
		2069.2,978.1 2044.5,964.3 2070.5,953.1 	"/>
	<polygon class="st1" points="1493.2,862.9 1511.9,884.2 1540,880.9 1525.5,905.3 1537.4,931 1509.8,924.7 1488.9,944 1486.3,915.7 
		1461.6,901.9 1487.7,890.7 	"/>
	<polygon class="st1" points="1293.6,581.3 1312.3,602.6 1340.4,599.3 1325.9,623.6 1337.8,649.4 1310.1,643.1 1289.3,662.3 
		1286.7,634.1 1262,620.3 1288,609.1 	"/>
	<polygon class="st1" points="869.4,627.6 888,648.9 916.2,645.6 901.7,670 913.5,695.7 885.9,689.5 865.1,708.7 862.5,680.5 
		837.8,666.6 863.8,655.4 	"/>
	<polygon class="st1" points="1192,501.1 1210.7,522.4 1238.8,519.1 1224.3,543.4 1236.2,569.2 1208.5,562.9 1187.7,582.1 
		1185.1,553.9 1160.4,540 1186.4,528.9 	"/>
	<polygon class="st1" points="712.5,877.2 731.2,898.5 759.3,895.2 744.8,919.5 756.7,945.3 729,939 708.2,958.2 705.6,930 
		680.9,916.1 707,905 	"/>
	<polygon class="st1" points="360.5,54.3 476.9,187 652.3,166.4 562,318.2 635.8,478.6 463.6,439.6 333.8,559.4 317.7,383.5 
		163.7,297.1 325.9,227.4 	"/>
	<polygon class="st1" points="2179.3,786.1 2232.5,846.7 2312.6,837.3 2271.4,906.6 2305.1,979.9 2226.4,962.1 2167.2,1016.8 
		2159.8,936.5 2089.5,897 2163.6,865.2 	"/>
	<polygon class="st1" points="301.6,1451.9 331.4,1486 376.4,1480.7 353.3,1519.6 372.2,1560.7 328,1550.7 294.7,1581.5 
		290.6,1536.4 251.1,1514.2 292.7,1496.3 	"/>
	<polygon class="st1" points="1972.7,144.6 1991.4,165.9 2019.5,162.6 2005,186.9 2016.9,212.7 1989.2,206.4 1968.4,225.6 
		1965.8,197.4 1941.1,183.6 1967.1,172.4 	"/>
	<polygon class="st1" points="812.8,1543.4 832,1565.2 860.9,1561.8 846,1586.8 858.2,1613.2 829.8,1606.8 808.4,1626.5 
		805.8,1597.6 780.4,1583.4 807.1,1571.9 	"/>
	<polygon class="st1" points="2320.8,381.2 2339.9,403.1 2368.8,399.7 2353.9,424.7 2366.1,451.1 2337.7,444.7 2316.4,464.4 
		2313.7,435.4 2288.4,421.2 2315.1,409.7 	"/>
	<polygon class="st1" points="1104.5,126.6 1157.7,187.2 1237.8,177.8 1196.5,247.1 1230.3,320.4 1151.6,302.6 1092.4,357.3 
		1085,277 1014.6,237.5 1088.7,205.7 	"/>
	<polygon class="st1" points="1919.1,1470.6 1972.3,1531.2 2052.4,1521.8 2011.1,1591.1 2044.8,1664.3 1966.2,1646.5 1906.9,1701.2 
		1899.6,1620.9 1829.2,1581.5 1903.3,1549.7 	"/>
	<polygon class="st1" points="472.4,686 491.5,707.9 520.4,704.5 505.6,729.5 517.7,755.9 489.3,749.5 468,769.2 465.3,740.2 
		440,726 466.7,714.5 	"/>
</g>
</svg>
